<mxfile host="app.diagrams.net" modified="2023-04-17T18:03:30.703Z" agent="Mozilla/5.0 (Windows NT 10.0; Win64; x64) AppleWebKit/537.36 (KHTML, like Gecko) Chrome/111.0.0.0 Safari/537.36" etag="Ga7LPWoVKV5lEkHT_r-f" version="21.1.8" type="github">
  <diagram id="C5RBs43oDa-KdzZeNtuy" name="Page-1">
    <mxGraphModel dx="1150" dy="483" grid="1" gridSize="10" guides="1" tooltips="1" connect="1" arrows="1" fold="1" page="1" pageScale="1" pageWidth="827" pageHeight="1169" math="0" shadow="0">
      <root>
        <mxCell id="WIyWlLk6GJQsqaUBKTNV-0" />
        <mxCell id="WIyWlLk6GJQsqaUBKTNV-1" parent="WIyWlLk6GJQsqaUBKTNV-0" />
        <mxCell id="WIyWlLk6GJQsqaUBKTNV-2" value="" style="rounded=0;html=1;jettySize=auto;orthogonalLoop=1;fontSize=11;endArrow=block;endFill=0;endSize=8;strokeWidth=1;shadow=0;labelBackgroundColor=none;edgeStyle=orthogonalEdgeStyle;" parent="WIyWlLk6GJQsqaUBKTNV-1" source="2I1Qdy97oW0lRZ1chace-3" target="WIyWlLk6GJQsqaUBKTNV-6" edge="1">
          <mxGeometry relative="1" as="geometry" />
        </mxCell>
        <mxCell id="WIyWlLk6GJQsqaUBKTNV-3" value="Geocoding results" style="rounded=1;whiteSpace=wrap;html=1;fontSize=12;glass=0;strokeWidth=1;shadow=0;" parent="WIyWlLk6GJQsqaUBKTNV-1" vertex="1">
          <mxGeometry x="160" y="27.5" width="120" height="40" as="geometry" />
        </mxCell>
        <mxCell id="WIyWlLk6GJQsqaUBKTNV-4" value="Yes" style="rounded=0;html=1;jettySize=auto;orthogonalLoop=1;fontSize=11;endArrow=block;endFill=0;endSize=8;strokeWidth=1;shadow=0;labelBackgroundColor=none;edgeStyle=orthogonalEdgeStyle;" parent="WIyWlLk6GJQsqaUBKTNV-1" source="WIyWlLk6GJQsqaUBKTNV-6" target="WIyWlLk6GJQsqaUBKTNV-10" edge="1">
          <mxGeometry y="20" relative="1" as="geometry">
            <mxPoint as="offset" />
          </mxGeometry>
        </mxCell>
        <mxCell id="WIyWlLk6GJQsqaUBKTNV-5" value="No" style="edgeStyle=orthogonalEdgeStyle;rounded=0;html=1;jettySize=auto;orthogonalLoop=1;fontSize=11;endArrow=block;endFill=0;endSize=8;strokeWidth=1;shadow=0;labelBackgroundColor=none;" parent="WIyWlLk6GJQsqaUBKTNV-1" source="WIyWlLk6GJQsqaUBKTNV-6" edge="1">
          <mxGeometry x="0.0345" y="30" relative="1" as="geometry">
            <mxPoint as="offset" />
            <mxPoint x="460" y="220" as="targetPoint" />
          </mxGeometry>
        </mxCell>
        <mxCell id="WIyWlLk6GJQsqaUBKTNV-6" value="ST_makepoint(LATITUDE, LONGITUDE" style="rhombus;whiteSpace=wrap;html=1;shadow=0;fontFamily=Helvetica;fontSize=12;align=center;strokeWidth=1;spacing=6;spacingTop=-4;" parent="WIyWlLk6GJQsqaUBKTNV-1" vertex="1">
          <mxGeometry x="135" y="140" width="180" height="160" as="geometry" />
        </mxCell>
        <mxCell id="WIyWlLk6GJQsqaUBKTNV-9" value="Yes" style="edgeStyle=orthogonalEdgeStyle;rounded=0;html=1;jettySize=auto;orthogonalLoop=1;fontSize=11;endArrow=block;endFill=0;endSize=8;strokeWidth=1;shadow=0;labelBackgroundColor=none;" parent="WIyWlLk6GJQsqaUBKTNV-1" source="WIyWlLk6GJQsqaUBKTNV-10" target="WIyWlLk6GJQsqaUBKTNV-12" edge="1">
          <mxGeometry y="10" relative="1" as="geometry">
            <mxPoint as="offset" />
          </mxGeometry>
        </mxCell>
        <mxCell id="WIyWlLk6GJQsqaUBKTNV-10" value="st_intersection(point,shapefile)" style="rhombus;whiteSpace=wrap;html=1;shadow=0;fontFamily=Helvetica;fontSize=12;align=center;strokeWidth=1;spacing=6;spacingTop=-4;" parent="WIyWlLk6GJQsqaUBKTNV-1" vertex="1">
          <mxGeometry x="145" y="368" width="160" height="120" as="geometry" />
        </mxCell>
        <mxCell id="WIyWlLk6GJQsqaUBKTNV-12" value="Replace Bulb" style="rounded=1;whiteSpace=wrap;html=1;fontSize=12;glass=0;strokeWidth=1;shadow=0;" parent="WIyWlLk6GJQsqaUBKTNV-1" vertex="1">
          <mxGeometry x="360" y="390" width="120" height="40" as="geometry" />
        </mxCell>
        <mxCell id="2I1Qdy97oW0lRZ1chace-1" value="" style="shape=image;verticalLabelPosition=bottom;labelBackgroundColor=default;verticalAlign=top;aspect=fixed;imageAspect=0;image=data:image/png,iVBORw0KGgoAAAANSUhEUgAAAN0AAADkCAMAAAArb9FNAAAB41BMVEX////Xo1rGjZjVbXb//4DV3HZNqcT/0NCA/////4P//3rFjJrdqF3XpVnYpFaAu4l4eC7Vane8v8KCgYDQm0+ZnaF4bF1uVC61hUCNazvabHXOY23/0dCZoKCzU1vb4nn/zNX/3b3bupD/1MpFp8erfjrFh5p4YGLW4XP/+opvZVlqWkXc328ATV//2NhsblRus7fJ14DRpJTb399kQwHA04egxp21zo94eFbJkY9fYyKIvaoba4DWgW3Xnl3TnmvQmnbMlIbr6+6WQEfWkmTU1nmChzrWimjVeHFuISnWlmJscnLKk4rVzXbVYnbMr4t8uY/jyozz6IaVj40xhp6zs7rp6XB9fYmOi4t2WjJSNgCXYTeXbi3MztFkWFlpREeBRElNQUJDGByHNj1BJCZYExtLSkphZ2ZFDhQ/ICJrWkZCMTJaRSeCXCF2KDCocn7VunPVwHbVrnbJnpKCXWSwt1tUMzqXnElSUV1ZWztCQzVMUBW4vZOemKqxk6J6t7EcNj9lpb6gqY/CpKWtn5Ka3N+q/+KN7/DE/8hBWmOkuayoxsvU/7aWZm996toXWWrt/5klQkvNwNCOtcgALjzH/8VsbAkAEyabenpmTU3htbWrh4dISClOTgBoaDD/5q++vk0zks+/AAALhklEQVR4nN2d/V8Uxx3HN7AH7EE4uJMmTbicMQiYAj5coxFRyRrR9BShcnBNOSk1uWurrdFIQayGhNTGNgRN0haUUP7U7sPdcbs7MzsPuzOz9/5NeIH7fn1nv/PZmblFURwUBvbJpVykXSTdZPfxfM+iB0jB/R/ZvPszELdfA/Gbn7v5WFc8bL+B4E0Xb7m5YPPb+fn5w68DOQCkE0gHE/MAu4E3mpnp/tD45a8IpmO+6LW7EYTdpVdFuxkcTrrMFhYWftewdovmvcUu19x9Vka75IUA1Ewuy2in/D6IyklrV3grGLtmKe30T4MpXrdoMxOPnVIOyO6caLVXQHbFm8HY/UqCoem1U24FUjxZ7dKB9JXuD+W0C2ZSkCKsgOxSbwZhJ0NYAdnpHwVRPBmm8wM9Xjul1NB2wYRNWe2UT4J4BpLWLohJQYYoBrZTAgibMkQxiF2OfVKQIaxA7LI32e0kCCsQO2WReWjKEFZgduyTggxhBWbHHjaltisw9xUJwgrUTv+oke2UMqudBFGsMwezK15glJMgrHSmYHbMKxAShBWEHWvYlCCsIOxYw6YEYQVlxxg2JbfL/oXNTnwUQ9kxrkBIEFaQdoxhU3I7xrApPqyg7RgnBcnt2La7xK8boe2UMsukID6K+dgxbXeJj2KdZaQdU9gUH8U630Xb5Rn6iviw4men/IG+eOLDiq8dw3aX+LDia8ew3RUBO6VEXTvxYcXfjiWvyG/HsvQnvx3LjSdYDsOO4SlPeFjBsKN/yus+J3hodtyGLtfWoH7KEx9WOj72taPuKxLY/dLXjrqviI9iGHbUfUV8WMGxo+4rkbBT/khZPOFRDMuOOo1Fwk7/lE5O+LoRlh3tVqXwsIJnR7lVKd7uFzh2lKtHwteNOv6EZUfXV4SHFcza0W1VCg8ruHZUq9LCwwquHdWqdGTs6PqK6LCCbUfXV6JiR9dXImNHcwRCdBTDt6PpK6LDCr4dTV8Rbee3gVcHRV8RHVbgh/y8kPcV0XaYOdOCvK+IjmIkduTn+EWHlY7b+HYU5/hF22E9vVYg30UXHMWI7CgW3QXb/RnwhhUoxLvogsMKmR3xkU3B0znw/TFwSBfdRYeVw0R2ScK+InrdiMyOtK+IDiuv+29P1kPYV0SHFfhnZYAQbuaJDisHCkR2pH1FsJ3PCU0PhJt5gsMKySOQBeGpP8F2/mc6nBC++ShidmR9RXQUw19YqUDUV0RHsddI7Yj6CqfzRq8auN/faP3Ht0litAVJXgk0rIAcOs8ZnDcYN/nA4LRBk0G7yR3AC2TQkPQVUjuQgPn1moB5/R9cuXJlX8BNUz3kdiR9BRzFPA7mv8+bRRh3F8FfAEl7mtQO/41q3d2TZ+uLUBlEtSJcwS8CLeR2vocEuk0mJ7vPjp//bNwQMABefzACSAijmAn05TkVq8uXzt+7ezU2aJAZPNTPQSJIO8+ie8Wq+ez4vc8qVrEqg7HP+8XZ4e8k1Kh9dM22mmw2h+DdixmH1T6Dd3mMQTAD5Hbm4SNTq/nypfF7thVQa59rosp3g8KueHPy8rh7CKIYvNokpnwLFHbKimGGpVUjI6Z82zR2+kO8mjnKd1qA330aO2WOVM70EzA58LOLDV7kPjlQ3XdKjvC2q/pNc54caHqmovQsEd94FpnYCa7lI1zyq6B30dmZczvHyeE+2VJ7jVFaO4Nr3PT+SienTzDYXeU2OClipmW3zGB3kZfdHfLHO4tiJOwWsnR2ScqeydeO4rZLm39pZmWJXo6fHek2gsGDwYwBg1xskJPdRp7cjmUu4Gu3QLxWGyW7RXK5CNnRxLAA7PjIbdDEsADsTnOxo4phkbGjevqJih1VDKN/9uFsd58mhjE9HVTsTvB4BKK67SJjR/X0ExW7OxQxLDp2NDEsGDseSw++MUxfHbV5cLRKOVVmeW61yRySYF8y/zCWAcEqF8twqN2Gz3mAFfYiCbRDzwfF1YthyXGxK6HkCux5C8Hd0O3uIJ5+9BLLopA/06HbIWJYcicWqhwHO/htN8c+oyHIDA1l/hb6wzkshumroY1KQyz23skzx/r6HoUsB4th+Z9C8hrK2GJ9fS0Gj8O1g8SwG8sBzNb7UqaVUa9TJ898UROzCffOuwUs3Np7FY5XL3AICiK7WFaxOiuHmE2odqAYdmOspc9N7WqOVThT5WSFU1WOVzl10hiDLWCpGl+GKAeIYdk1+KXU4fEH4/+LQtTzzgfpH3HcgiS8xumJYeUx3nLh6bljmL42w18utHnBdRYgz31UVghnXnDedjkBo9Kk79hXoUQyRwxLChmVJonES8dlgU9Pt7f395OcMHMuQqdFyU0lEuu1a+pvWl8/UeXaIQfT09Mn8AWdZwEKQtT6TLnE11W39b+3tT2Jqwh+fagdT9C5GpYTIncsYfK1deP15//RZvAN0s4SbMIoofMswFMRcl9Ycol/5vOPH/+rzeZbPzuDI9Of+wi6YtimALspWy7xXVsdOHaWIPImdMWwzRnuTTORANk9w5Iz0a5egwq6NiWT+fz1QiH3fHgMy3LMZrjC8+fDw5tjeD9aoW+qZlcv14ZXuirWTeiVa4ethhWvl5/6KW7msjb1P6hns6lhXLcvf/j+yPGELTjFYGcKTp/2lBB9JLOYd2XOmc1KlZ6mrpfL0J/NlnwTT1/LD8nve3t7Dx4xxpYhOOUYlxR2aqXLmLN99UjyJyg5kzq/meFSGnerqLjmU7Jek9bWVtNOVePfOt18pjs4mjHZTxtz/sLCwsbGBsZZgOvP7UtayxPtgoH1qiUzxSxsOzUefxKIXYXZvHmHYG2WF61p4kfCjXXd+6xRV7JWl53h96ze7t9sdkMEm60pY3AOEx/WSW4iSua1M8r3DfF0B0bTZkm2ktdaxih2nlMztZK1As2cdobfkdrwfMZgpy1P/IfkE7z6fyk+d6gopRZoyYB2dd0FfzIHyFGdASDn1gjSzGunxjWrfE80ejsVuV0XIMmtEbSbx87sLs+0ONO4pPxUBTm5Fz6l89qpLGomK7zkFGWR3I4NrYvqbAod2QGfsXkwWDl1do6fnKIU1tHVO8g4Dl1oe2SJipWST+2CtVPVpaM87fRt5NgM3E57n6edUkD2zeDtdrkOTXTxKOw0NOoDrnq5YEemttQFZfd9gweUn9aiQ0fNChR2XNuGP6i2SWHHt234UnwJ7yvRt1NK8KHZAHZ5eGBpADtlEVq8RrBLQ2f0RrBToDN6Q9hBZ/Re8qxC/DLF0IHO6O8Q2mmzq1yDFh5lSO0I7bQ9jgsL+BQhC0hkdloX2XuRuQGZ0UnsNHWH23oXIUlwHCOw0/Z4rVRSAJ7R8e20iUeiFRCAZ3RcO019SPx2T64AZ3RMO222JOFEUE8KVDw8O0NO9NX7AZzRMWu3Kvri/SlTj8wIyClZwIyOY6dNSH7P2ZS8Nx6W3a7oC8ciRTkyKV+WxZkc3chUue7rUAOwe9vfTiM5nyEQOjv1p0g0FSVFZbcTDTnQU5C/XRTmOoPcNiCK+dlpE7I+0jlJvRgB5Ew/u6Fo9EvIw7mPnTYh+rLxWAS5NYidfqsVvBrtZ/dQ9JVjoC/Czouh7bTdKPQU0NMBlh3pnygSQxki57Szd/XrvzAq+sKxgBav3k5b2p1Y3huajata7Stcd/ipge2dO+y6dCVbzPfM5UZnbb+oBGhY8Sy72mjsqszd+sqE+UVNHY1CV1GgK+3/i5vjb7Zavb3qPkG2tKRpe7Iv89Uobo309o6YuO20rkc7cdVuKPH94JXcGZV0SwREenv95dbA9sCiy07bySrFudzRLqOhqGo0pgAAerFoDjTnubG31Z397+fnypRv5JaH9EBr3dOCuhyVewuTrPGkV/U7uLcXjaZPQs/iutVeRrYKPQ1WO4tkaau1t/dFNJYqKSiWXowAX8vTIKS2uUaR/wOueX0/Ke2BUgAAAABJRU5ErkJggg==;" vertex="1" parent="WIyWlLk6GJQsqaUBKTNV-1">
          <mxGeometry x="580" y="280" width="221" height="228" as="geometry" />
        </mxCell>
        <mxCell id="2I1Qdy97oW0lRZ1chace-4" value="" style="rounded=0;html=1;jettySize=auto;orthogonalLoop=1;fontSize=11;endArrow=block;endFill=0;endSize=8;strokeWidth=1;shadow=0;labelBackgroundColor=none;edgeStyle=orthogonalEdgeStyle;" edge="1" parent="WIyWlLk6GJQsqaUBKTNV-1" source="WIyWlLk6GJQsqaUBKTNV-3" target="2I1Qdy97oW0lRZ1chace-3">
          <mxGeometry relative="1" as="geometry">
            <mxPoint x="220" y="68" as="sourcePoint" />
            <mxPoint x="220" y="140" as="targetPoint" />
          </mxGeometry>
        </mxCell>
        <mxCell id="2I1Qdy97oW0lRZ1chace-3" value="&lt;font style=&quot;font-size: 14px;&quot;&gt;geocoded results&lt;/font&gt;" style="shape=datastore;whiteSpace=wrap;html=1;fontSize=18;fontSize=20;fillColor=#e6d0de;gradientColor=#d5739d;strokeColor=#996185;" vertex="1" parent="WIyWlLk6GJQsqaUBKTNV-1">
          <mxGeometry x="150" y="20" width="150" height="65" as="geometry" />
        </mxCell>
        <mxCell id="2I1Qdy97oW0lRZ1chace-6" value="" style="ellipse;html=1;shape=endState;fillColor=#000000;strokeColor=#ff0000;fontSize=14;" vertex="1" parent="WIyWlLk6GJQsqaUBKTNV-1">
          <mxGeometry x="209.99999999999994" y="250" width="30" height="30" as="geometry" />
        </mxCell>
      </root>
    </mxGraphModel>
  </diagram>
</mxfile>
